<mxfile host="app.diagrams.net" modified="2024-02-05T21:38:07.008Z" agent="Mozilla/5.0 (Windows NT 10.0; Win64; x64) AppleWebKit/537.36 (KHTML, like Gecko) Chrome/121.0.0.0 Safari/537.36" version="23.1.1" etag="zxz1ulZMy9ay--yKc9gC" type="github">
  <diagram name="Sayfa -1" id="txMzuF0gE1sM2IClxc4G">
    <mxGraphModel>
      <root>
        <mxCell id="0" />
        <mxCell id="1" parent="0" />
      </root>
    </mxGraphModel>
  </diagram>
</mxfile>
